<mxfile host="app.diagrams.net" agent="Mozilla/5.0 (Windows NT 10.0; Win64; x64) AppleWebKit/537.36 (KHTML, like Gecko) Chrome/136.0.0.0 Safari/537.36 Edg/136.0.0.0" version="27.0.9">
  <diagram name="Page-1" id="I_fi34gCobDoUekR8h0Z">
    <mxGraphModel dx="1668" dy="929" grid="1" gridSize="10" guides="1" tooltips="1" connect="1" arrows="1" fold="1" page="1" pageScale="1" pageWidth="827" pageHeight="1169" math="0" shadow="0">
      <root>
        <mxCell id="0" />
        <mxCell id="1" parent="0" />
        <mxCell id="ttTmyin4ZHnzs8-TzVL9-3" value="Autentication" style="rounded=0;whiteSpace=wrap;html=1;" parent="1" vertex="1">
          <mxGeometry x="200" y="180" width="100" height="40" as="geometry" />
        </mxCell>
        <mxCell id="ttTmyin4ZHnzs8-TzVL9-5" value="Vehicle Services" style="rounded=0;whiteSpace=wrap;html=1;" parent="1" vertex="1">
          <mxGeometry x="340" y="180" width="100" height="40" as="geometry" />
        </mxCell>
        <mxCell id="ttTmyin4ZHnzs8-TzVL9-6" value="POI Search" style="rounded=0;whiteSpace=wrap;html=1;" parent="1" vertex="1">
          <mxGeometry x="480" y="180" width="100" height="40" as="geometry" />
        </mxCell>
        <mxCell id="ttTmyin4ZHnzs8-TzVL9-17" style="rounded=0;orthogonalLoop=1;jettySize=auto;html=1;exitX=0.5;exitY=1;exitDx=0;exitDy=0;entryX=0.5;entryY=0;entryDx=0;entryDy=0;endArrow=oval;endFill=1;shadow=0;endFillColor=light-dark(#000000,#000000);" parent="1" source="ttTmyin4ZHnzs8-TzVL9-1" target="ttTmyin4ZHnzs8-TzVL9-3" edge="1">
          <mxGeometry relative="1" as="geometry" />
        </mxCell>
        <mxCell id="ttTmyin4ZHnzs8-TzVL9-19" style="rounded=0;orthogonalLoop=1;jettySize=auto;html=1;exitX=0.5;exitY=1;exitDx=0;exitDy=0;entryX=0.5;entryY=0;entryDx=0;entryDy=0;endArrow=oval;endFill=1;endFillColor=light-dark(#000000,#000000);" parent="1" source="ttTmyin4ZHnzs8-TzVL9-1" target="ttTmyin4ZHnzs8-TzVL9-5" edge="1">
          <mxGeometry relative="1" as="geometry" />
        </mxCell>
        <mxCell id="ttTmyin4ZHnzs8-TzVL9-20" style="rounded=0;orthogonalLoop=1;jettySize=auto;html=1;exitX=0.5;exitY=1;exitDx=0;exitDy=0;entryX=0.5;entryY=0;entryDx=0;entryDy=0;endArrow=oval;endFill=1;endFillColor=light-dark(#FFFFFF,#FFFFFF);" parent="1" source="ttTmyin4ZHnzs8-TzVL9-1" target="ttTmyin4ZHnzs8-TzVL9-6" edge="1">
          <mxGeometry relative="1" as="geometry" />
        </mxCell>
        <mxCell id="ttTmyin4ZHnzs8-TzVL9-1" value="MyWazeProject" style="rounded=0;whiteSpace=wrap;html=1;" parent="1" vertex="1">
          <mxGeometry x="810" y="70" width="130" height="40" as="geometry" />
        </mxCell>
        <mxCell id="ttTmyin4ZHnzs8-TzVL9-7" value="Route Managemnet" style="rounded=0;whiteSpace=wrap;html=1;" parent="1" vertex="1">
          <mxGeometry x="620" y="180" width="100" height="40" as="geometry" />
        </mxCell>
        <mxCell id="uzpOIc5umadA595eGGY--45" style="edgeStyle=elbowEdgeStyle;shape=connector;rounded=0;orthogonalLoop=1;jettySize=auto;html=1;exitX=0.75;exitY=0;exitDx=0;exitDy=0;entryX=0.5;entryY=0;entryDx=0;entryDy=0;strokeColor=default;align=center;verticalAlign=middle;fontFamily=Helvetica;fontSize=11;fontColor=default;labelBackgroundColor=default;endArrow=classic;endFill=1;dashed=1;elbow=vertical;" edge="1" parent="1">
          <mxGeometry relative="1" as="geometry">
            <mxPoint x="850" y="180" as="sourcePoint" />
            <mxPoint x="1795" y="270" as="targetPoint" />
            <Array as="points">
              <mxPoint x="1320" y="140" />
            </Array>
          </mxGeometry>
        </mxCell>
        <mxCell id="uzpOIc5umadA595eGGY--46" value="requires" style="edgeLabel;html=1;align=center;verticalAlign=middle;resizable=0;points=[];fontFamily=Helvetica;fontSize=11;fontColor=default;labelBackgroundColor=default;" vertex="1" connectable="0" parent="uzpOIc5umadA595eGGY--45">
          <mxGeometry x="0.4887" y="1" relative="1" as="geometry">
            <mxPoint y="-9" as="offset" />
          </mxGeometry>
        </mxCell>
        <mxCell id="ttTmyin4ZHnzs8-TzVL9-8" value="Carpooling&amp;nbsp;" style="rounded=0;whiteSpace=wrap;html=1;" parent="1" vertex="1">
          <mxGeometry x="760" y="180" width="100" height="40" as="geometry" />
        </mxCell>
        <mxCell id="ttTmyin4ZHnzs8-TzVL9-10" value="Navigation" style="rounded=0;whiteSpace=wrap;html=1;" parent="1" vertex="1">
          <mxGeometry x="900" y="180" width="100" height="40" as="geometry" />
        </mxCell>
        <mxCell id="ttTmyin4ZHnzs8-TzVL9-12" value="Notifications" style="rounded=0;whiteSpace=wrap;html=1;" parent="1" vertex="1">
          <mxGeometry x="1040" y="180" width="100" height="40" as="geometry" />
        </mxCell>
        <mxCell id="ttTmyin4ZHnzs8-TzVL9-64" style="edgeStyle=none;shape=connector;rounded=0;orthogonalLoop=1;jettySize=auto;html=1;exitX=0.5;exitY=1;exitDx=0;exitDy=0;entryX=0.5;entryY=0;entryDx=0;entryDy=0;strokeColor=default;align=center;verticalAlign=middle;fontFamily=Helvetica;fontSize=11;fontColor=default;labelBackgroundColor=default;startFill=0;endArrow=none;endFill=0;" parent="1" source="ttTmyin4ZHnzs8-TzVL9-14" target="ttTmyin4ZHnzs8-TzVL9-61" edge="1">
          <mxGeometry relative="1" as="geometry" />
        </mxCell>
        <mxCell id="ttTmyin4ZHnzs8-TzVL9-65" style="edgeStyle=none;shape=connector;rounded=0;orthogonalLoop=1;jettySize=auto;html=1;exitX=0.5;exitY=1;exitDx=0;exitDy=0;entryX=0.5;entryY=0;entryDx=0;entryDy=0;strokeColor=default;align=center;verticalAlign=middle;fontFamily=Helvetica;fontSize=11;fontColor=default;labelBackgroundColor=default;startFill=0;endArrow=none;endFill=0;" parent="1" source="ttTmyin4ZHnzs8-TzVL9-14" target="ttTmyin4ZHnzs8-TzVL9-57" edge="1">
          <mxGeometry relative="1" as="geometry" />
        </mxCell>
        <mxCell id="ttTmyin4ZHnzs8-TzVL9-66" style="edgeStyle=none;shape=connector;rounded=0;orthogonalLoop=1;jettySize=auto;html=1;exitX=0.5;exitY=1;exitDx=0;exitDy=0;entryX=0.5;entryY=0;entryDx=0;entryDy=0;strokeColor=default;align=center;verticalAlign=middle;fontFamily=Helvetica;fontSize=11;fontColor=default;labelBackgroundColor=default;startFill=0;endArrow=none;endFill=0;" parent="1" source="ttTmyin4ZHnzs8-TzVL9-14" target="ttTmyin4ZHnzs8-TzVL9-58" edge="1">
          <mxGeometry relative="1" as="geometry" />
        </mxCell>
        <mxCell id="ttTmyin4ZHnzs8-TzVL9-67" style="edgeStyle=none;shape=connector;rounded=0;orthogonalLoop=1;jettySize=auto;html=1;exitX=0.5;exitY=1;exitDx=0;exitDy=0;entryX=0.5;entryY=0;entryDx=0;entryDy=0;strokeColor=default;align=center;verticalAlign=middle;fontFamily=Helvetica;fontSize=11;fontColor=default;labelBackgroundColor=default;startFill=0;endArrow=none;endFill=0;" parent="1" source="ttTmyin4ZHnzs8-TzVL9-14" target="ttTmyin4ZHnzs8-TzVL9-60" edge="1">
          <mxGeometry relative="1" as="geometry" />
        </mxCell>
        <mxCell id="ttTmyin4ZHnzs8-TzVL9-68" style="edgeStyle=none;shape=connector;rounded=0;orthogonalLoop=1;jettySize=auto;html=1;exitX=0.5;exitY=1;exitDx=0;exitDy=0;entryX=0.5;entryY=0;entryDx=0;entryDy=0;strokeColor=default;align=center;verticalAlign=middle;fontFamily=Helvetica;fontSize=11;fontColor=default;labelBackgroundColor=default;startFill=0;endArrow=none;endFill=0;" parent="1" source="ttTmyin4ZHnzs8-TzVL9-14" target="ttTmyin4ZHnzs8-TzVL9-62" edge="1">
          <mxGeometry relative="1" as="geometry" />
        </mxCell>
        <mxCell id="ttTmyin4ZHnzs8-TzVL9-69" style="edgeStyle=none;shape=connector;rounded=0;orthogonalLoop=1;jettySize=auto;html=1;exitX=0.5;exitY=1;exitDx=0;exitDy=0;entryX=0.5;entryY=0;entryDx=0;entryDy=0;strokeColor=default;align=center;verticalAlign=middle;fontFamily=Helvetica;fontSize=11;fontColor=default;labelBackgroundColor=default;startFill=0;endArrow=none;endFill=0;" parent="1" source="ttTmyin4ZHnzs8-TzVL9-14" target="ttTmyin4ZHnzs8-TzVL9-63" edge="1">
          <mxGeometry relative="1" as="geometry" />
        </mxCell>
        <mxCell id="ttTmyin4ZHnzs8-TzVL9-14" value="Incident Reports" style="rounded=0;whiteSpace=wrap;html=1;" parent="1" vertex="1">
          <mxGeometry x="1180" y="180" width="100" height="40" as="geometry" />
        </mxCell>
        <mxCell id="ttTmyin4ZHnzs8-TzVL9-15" value="Map Customization" style="rounded=0;whiteSpace=wrap;html=1;" parent="1" vertex="1">
          <mxGeometry x="1320" y="180" width="100" height="40" as="geometry" />
        </mxCell>
        <mxCell id="ttTmyin4ZHnzs8-TzVL9-31" style="edgeStyle=none;shape=connector;rounded=0;orthogonalLoop=1;jettySize=auto;html=1;exitX=0.5;exitY=1;exitDx=0;exitDy=0;entryX=0.5;entryY=0;entryDx=0;entryDy=0;strokeColor=default;align=center;verticalAlign=middle;fontFamily=Helvetica;fontSize=11;fontColor=default;labelBackgroundColor=default;endArrow=none;endFill=1;startFill=0;" parent="1" source="ttTmyin4ZHnzs8-TzVL9-16" target="ttTmyin4ZHnzs8-TzVL9-28" edge="1">
          <mxGeometry relative="1" as="geometry" />
        </mxCell>
        <mxCell id="ttTmyin4ZHnzs8-TzVL9-32" style="edgeStyle=none;shape=connector;rounded=0;orthogonalLoop=1;jettySize=auto;html=1;exitX=0.5;exitY=1;exitDx=0;exitDy=0;strokeColor=default;align=center;verticalAlign=middle;fontFamily=Helvetica;fontSize=11;fontColor=default;labelBackgroundColor=default;startFill=0;endArrow=none;endFill=1;" parent="1" source="ttTmyin4ZHnzs8-TzVL9-16" target="ttTmyin4ZHnzs8-TzVL9-29" edge="1">
          <mxGeometry relative="1" as="geometry" />
        </mxCell>
        <mxCell id="ttTmyin4ZHnzs8-TzVL9-33" style="edgeStyle=none;shape=connector;rounded=0;orthogonalLoop=1;jettySize=auto;html=1;exitX=0.5;exitY=1;exitDx=0;exitDy=0;entryX=0.5;entryY=0;entryDx=0;entryDy=0;strokeColor=default;align=center;verticalAlign=middle;fontFamily=Helvetica;fontSize=11;fontColor=default;labelBackgroundColor=default;startFill=0;endArrow=none;endFill=1;" parent="1" source="ttTmyin4ZHnzs8-TzVL9-16" target="ttTmyin4ZHnzs8-TzVL9-30" edge="1">
          <mxGeometry relative="1" as="geometry" />
        </mxCell>
        <mxCell id="ttTmyin4ZHnzs8-TzVL9-16" value="Third-Party Integration" style="rounded=0;whiteSpace=wrap;html=1;" parent="1" vertex="1">
          <mxGeometry x="1460" y="180" width="100" height="40" as="geometry" />
        </mxCell>
        <mxCell id="ttTmyin4ZHnzs8-TzVL9-21" style="rounded=0;orthogonalLoop=1;jettySize=auto;html=1;exitX=0.5;exitY=1;exitDx=0;exitDy=0;endArrow=oval;endFill=1;entryX=0.5;entryY=0;entryDx=0;entryDy=0;endFillColor=light-dark(#000000,#000000);" parent="1" source="ttTmyin4ZHnzs8-TzVL9-1" target="ttTmyin4ZHnzs8-TzVL9-7" edge="1">
          <mxGeometry relative="1" as="geometry" />
        </mxCell>
        <mxCell id="ttTmyin4ZHnzs8-TzVL9-22" style="edgeStyle=none;shape=connector;rounded=0;orthogonalLoop=1;jettySize=auto;html=1;exitX=0.5;exitY=1;exitDx=0;exitDy=0;entryX=0.5;entryY=0;entryDx=0;entryDy=0;strokeColor=default;align=center;verticalAlign=middle;fontFamily=Helvetica;fontSize=11;fontColor=default;labelBackgroundColor=default;endArrow=oval;endFill=1;endFillColor=light-dark(#FFFFFF,#FFFFFF);" parent="1" source="ttTmyin4ZHnzs8-TzVL9-1" target="ttTmyin4ZHnzs8-TzVL9-8" edge="1">
          <mxGeometry relative="1" as="geometry" />
        </mxCell>
        <mxCell id="ttTmyin4ZHnzs8-TzVL9-23" style="edgeStyle=none;shape=connector;rounded=0;orthogonalLoop=1;jettySize=auto;html=1;exitX=0.5;exitY=1;exitDx=0;exitDy=0;entryX=0.5;entryY=0;entryDx=0;entryDy=0;strokeColor=default;align=center;verticalAlign=middle;fontFamily=Helvetica;fontSize=11;fontColor=default;labelBackgroundColor=default;endArrow=oval;endFill=1;endFillColor=light-dark(#000000,#000000);" parent="1" source="ttTmyin4ZHnzs8-TzVL9-1" target="ttTmyin4ZHnzs8-TzVL9-10" edge="1">
          <mxGeometry relative="1" as="geometry" />
        </mxCell>
        <mxCell id="ttTmyin4ZHnzs8-TzVL9-24" style="edgeStyle=none;shape=connector;rounded=0;orthogonalLoop=1;jettySize=auto;html=1;exitX=0.5;exitY=1;exitDx=0;exitDy=0;entryX=0.5;entryY=0;entryDx=0;entryDy=0;strokeColor=default;align=center;verticalAlign=middle;fontFamily=Helvetica;fontSize=11;fontColor=default;labelBackgroundColor=default;endArrow=oval;endFill=1;endFillColor=light-dark(#000000,#000000);" parent="1" source="ttTmyin4ZHnzs8-TzVL9-1" target="ttTmyin4ZHnzs8-TzVL9-12" edge="1">
          <mxGeometry relative="1" as="geometry" />
        </mxCell>
        <mxCell id="ttTmyin4ZHnzs8-TzVL9-25" style="edgeStyle=none;shape=connector;rounded=0;orthogonalLoop=1;jettySize=auto;html=1;exitX=0.5;exitY=1;exitDx=0;exitDy=0;entryX=0.5;entryY=0;entryDx=0;entryDy=0;strokeColor=default;align=center;verticalAlign=middle;fontFamily=Helvetica;fontSize=11;fontColor=default;labelBackgroundColor=default;endArrow=oval;endFill=1;endFillColor=light-dark(#FFFFFF,#FFFFFF);" parent="1" source="ttTmyin4ZHnzs8-TzVL9-1" target="ttTmyin4ZHnzs8-TzVL9-14" edge="1">
          <mxGeometry relative="1" as="geometry" />
        </mxCell>
        <mxCell id="ttTmyin4ZHnzs8-TzVL9-26" style="edgeStyle=none;shape=connector;rounded=0;orthogonalLoop=1;jettySize=auto;html=1;exitX=0.5;exitY=1;exitDx=0;exitDy=0;entryX=0.5;entryY=0;entryDx=0;entryDy=0;strokeColor=default;align=center;verticalAlign=middle;fontFamily=Helvetica;fontSize=11;fontColor=default;labelBackgroundColor=default;endArrow=oval;endFill=1;endFillColor=light-dark(#FFFFFF,#FFFFFF);" parent="1" source="ttTmyin4ZHnzs8-TzVL9-1" target="ttTmyin4ZHnzs8-TzVL9-15" edge="1">
          <mxGeometry relative="1" as="geometry" />
        </mxCell>
        <mxCell id="ttTmyin4ZHnzs8-TzVL9-27" style="edgeStyle=none;shape=connector;rounded=0;orthogonalLoop=1;jettySize=auto;html=1;exitX=0.5;exitY=1;exitDx=0;exitDy=0;entryX=0.5;entryY=0;entryDx=0;entryDy=0;strokeColor=default;align=center;verticalAlign=middle;fontFamily=Helvetica;fontSize=11;fontColor=default;labelBackgroundColor=default;endArrow=oval;endFill=1;endFillColor=light-dark(#FFFFFF,#FFFFFF);" parent="1" source="ttTmyin4ZHnzs8-TzVL9-1" target="ttTmyin4ZHnzs8-TzVL9-16" edge="1">
          <mxGeometry relative="1" as="geometry" />
        </mxCell>
        <mxCell id="ttTmyin4ZHnzs8-TzVL9-28" value="Spotify&lt;span style=&quot;color: rgba(0, 0, 0, 0); font-family: monospace; font-size: 0px; text-align: start; text-wrap-mode: nowrap;&quot;&gt;%3CmxGraphModel%3E%3Croot%3E%3CmxCell%20id%3D%220%22%2F%3E%3CmxCell%20id%3D%221%22%20parent%3D%220%22%2F%3E%3CmxCell%20id%3D%222%22%20value%3D%22Incident%20Reports%22%20style%3D%22rounded%3D0%3BwhiteSpace%3Dwrap%3Bhtml%3D1%3B%22%20vertex%3D%221%22%20parent%3D%221%22%3E%3CmxGeometry%20x%3D%221180%22%20y%3D%22180%22%20width%3D%22100%22%20height%3D%2240%22%20as%3D%22geometry%22%2F%3E%3C%2FmxCell%3E%3C%2Froot%3E%3C%2FmxGraphModel%3E&lt;/span&gt;" style="rounded=0;whiteSpace=wrap;html=1;" parent="1" vertex="1">
          <mxGeometry x="1410" y="270" width="50" height="40" as="geometry" />
        </mxCell>
        <mxCell id="ttTmyin4ZHnzs8-TzVL9-29" value="Youtube" style="rounded=0;whiteSpace=wrap;html=1;" parent="1" vertex="1">
          <mxGeometry x="1480" y="270" width="60" height="40" as="geometry" />
        </mxCell>
        <mxCell id="ttTmyin4ZHnzs8-TzVL9-30" value="Amazon Music" style="rounded=0;whiteSpace=wrap;html=1;" parent="1" vertex="1">
          <mxGeometry x="1560" y="270" width="60" height="40" as="geometry" />
        </mxCell>
        <mxCell id="ttTmyin4ZHnzs8-TzVL9-36" value="" style="verticalLabelPosition=bottom;verticalAlign=top;html=1;shape=mxgraph.basic.pie;startAngle=0.1014690426860699;endAngle=0.44928454701280635;fontFamily=Helvetica;fontSize=11;fontColor=default;labelBackgroundColor=default;rotation=80;fillColor=none;" parent="1" vertex="1">
          <mxGeometry x="1485" y="200" width="50" height="40" as="geometry" />
        </mxCell>
        <mxCell id="ttTmyin4ZHnzs8-TzVL9-45" style="edgeStyle=none;shape=connector;rounded=0;orthogonalLoop=1;jettySize=auto;html=1;exitX=0.5;exitY=1;exitDx=0;exitDy=0;entryX=0.5;entryY=0;entryDx=0;entryDy=0;strokeColor=default;align=center;verticalAlign=middle;fontFamily=Helvetica;fontSize=11;fontColor=default;labelBackgroundColor=default;startFill=0;endArrow=none;endFill=0;" parent="1" source="ttTmyin4ZHnzs8-TzVL9-38" target="ttTmyin4ZHnzs8-TzVL9-43" edge="1">
          <mxGeometry relative="1" as="geometry" />
        </mxCell>
        <mxCell id="ttTmyin4ZHnzs8-TzVL9-46" style="edgeStyle=none;shape=connector;rounded=0;orthogonalLoop=1;jettySize=auto;html=1;exitX=0.5;exitY=1;exitDx=0;exitDy=0;entryX=0.5;entryY=0;entryDx=0;entryDy=0;strokeColor=default;align=center;verticalAlign=middle;fontFamily=Helvetica;fontSize=11;fontColor=default;labelBackgroundColor=default;startFill=0;endArrow=none;endFill=0;" parent="1" source="ttTmyin4ZHnzs8-TzVL9-38" target="ttTmyin4ZHnzs8-TzVL9-44" edge="1">
          <mxGeometry relative="1" as="geometry" />
        </mxCell>
        <mxCell id="ttTmyin4ZHnzs8-TzVL9-38" value="Color" style="rounded=0;whiteSpace=wrap;html=1;" parent="1" vertex="1">
          <mxGeometry x="1320" y="330" width="50" height="40" as="geometry" />
        </mxCell>
        <mxCell id="ttTmyin4ZHnzs8-TzVL9-51" style="edgeStyle=none;shape=connector;rounded=0;orthogonalLoop=1;jettySize=auto;html=1;exitX=0.5;exitY=1;exitDx=0;exitDy=0;entryX=0.5;entryY=0;entryDx=0;entryDy=0;strokeColor=default;align=center;verticalAlign=middle;fontFamily=Helvetica;fontSize=11;fontColor=default;labelBackgroundColor=default;startFill=0;endArrow=none;endFill=0;" parent="1" source="ttTmyin4ZHnzs8-TzVL9-39" target="ttTmyin4ZHnzs8-TzVL9-48" edge="1">
          <mxGeometry relative="1" as="geometry" />
        </mxCell>
        <mxCell id="ttTmyin4ZHnzs8-TzVL9-52" style="edgeStyle=none;shape=connector;rounded=0;orthogonalLoop=1;jettySize=auto;html=1;exitX=0.5;exitY=1;exitDx=0;exitDy=0;entryX=0.5;entryY=0;entryDx=0;entryDy=0;strokeColor=default;align=center;verticalAlign=middle;fontFamily=Helvetica;fontSize=11;fontColor=default;labelBackgroundColor=default;startFill=0;endArrow=none;endFill=0;" parent="1" source="ttTmyin4ZHnzs8-TzVL9-39" target="ttTmyin4ZHnzs8-TzVL9-49" edge="1">
          <mxGeometry relative="1" as="geometry" />
        </mxCell>
        <mxCell id="ttTmyin4ZHnzs8-TzVL9-53" style="edgeStyle=none;shape=connector;rounded=0;orthogonalLoop=1;jettySize=auto;html=1;exitX=0.5;exitY=1;exitDx=0;exitDy=0;entryX=0.5;entryY=0;entryDx=0;entryDy=0;strokeColor=default;align=center;verticalAlign=middle;fontFamily=Helvetica;fontSize=11;fontColor=default;labelBackgroundColor=default;startFill=0;endArrow=none;endFill=0;" parent="1" source="ttTmyin4ZHnzs8-TzVL9-39" target="ttTmyin4ZHnzs8-TzVL9-50" edge="1">
          <mxGeometry relative="1" as="geometry" />
        </mxCell>
        <mxCell id="ttTmyin4ZHnzs8-TzVL9-39" value="Sytle" style="rounded=0;whiteSpace=wrap;html=1;" parent="1" vertex="1">
          <mxGeometry x="1390" y="330" width="50" height="40" as="geometry" />
        </mxCell>
        <mxCell id="ttTmyin4ZHnzs8-TzVL9-41" style="edgeStyle=none;shape=connector;rounded=0;orthogonalLoop=1;jettySize=auto;html=1;exitX=0.5;exitY=1;exitDx=0;exitDy=0;entryX=0.5;entryY=0;entryDx=0;entryDy=0;strokeColor=default;align=center;verticalAlign=middle;fontFamily=Helvetica;fontSize=11;fontColor=default;labelBackgroundColor=default;startFill=0;endArrow=oval;endFill=1;endFillColor=light-dark(#FFFFFF,#FFFFFF);" parent="1" source="ttTmyin4ZHnzs8-TzVL9-15" target="ttTmyin4ZHnzs8-TzVL9-38" edge="1">
          <mxGeometry relative="1" as="geometry" />
        </mxCell>
        <mxCell id="ttTmyin4ZHnzs8-TzVL9-43" value="Dark" style="rounded=0;whiteSpace=wrap;html=1;" parent="1" vertex="1">
          <mxGeometry x="1280" y="400" width="39" height="30" as="geometry" />
        </mxCell>
        <mxCell id="ttTmyin4ZHnzs8-TzVL9-44" value="Light" style="rounded=0;whiteSpace=wrap;html=1;" parent="1" vertex="1">
          <mxGeometry x="1340" y="400" width="40" height="30" as="geometry" />
        </mxCell>
        <mxCell id="ttTmyin4ZHnzs8-TzVL9-47" value="" style="verticalLabelPosition=bottom;verticalAlign=top;html=1;shape=mxgraph.basic.pie;startAngle=0.19937479135734873;endAngle=0.4346577527209455;fontFamily=Helvetica;fontSize=11;fontColor=default;labelBackgroundColor=default;rotation=80;fillColor=none;" parent="1" vertex="1">
          <mxGeometry x="1324" y="350" width="41" height="40" as="geometry" />
        </mxCell>
        <mxCell id="ttTmyin4ZHnzs8-TzVL9-48" value="2D" style="rounded=0;whiteSpace=wrap;html=1;" parent="1" vertex="1">
          <mxGeometry x="1390" y="400" width="39" height="30" as="geometry" />
        </mxCell>
        <mxCell id="ttTmyin4ZHnzs8-TzVL9-49" value="Auto" style="rounded=0;whiteSpace=wrap;html=1;" parent="1" vertex="1">
          <mxGeometry x="1440" y="400" width="39" height="30" as="geometry" />
        </mxCell>
        <mxCell id="ttTmyin4ZHnzs8-TzVL9-50" value="3D" style="rounded=0;whiteSpace=wrap;html=1;" parent="1" vertex="1">
          <mxGeometry x="1490" y="400" width="39" height="30" as="geometry" />
        </mxCell>
        <mxCell id="ttTmyin4ZHnzs8-TzVL9-56" value="" style="verticalLabelPosition=bottom;verticalAlign=top;html=1;shape=mxgraph.basic.pie;startAngle=0.07379180882521663;endAngle=0.3079290501099399;fontFamily=Helvetica;fontSize=11;fontColor=default;labelBackgroundColor=default;rotation=80;fillColor=none;" parent="1" vertex="1">
          <mxGeometry x="1394.4959427024162" y="350.00152249008886" width="41" height="40" as="geometry" />
        </mxCell>
        <mxCell id="ttTmyin4ZHnzs8-TzVL9-57" value="Transit" style="rounded=0;whiteSpace=wrap;html=1;" parent="1" vertex="1">
          <mxGeometry x="1140" y="290" width="50" height="30" as="geometry" />
        </mxCell>
        <mxCell id="ttTmyin4ZHnzs8-TzVL9-58" value="Policia" style="rounded=0;whiteSpace=wrap;html=1;" parent="1" vertex="1">
          <mxGeometry x="1205" y="290" width="50" height="30" as="geometry" />
        </mxCell>
        <mxCell id="ttTmyin4ZHnzs8-TzVL9-60" value="Acident" style="rounded=0;whiteSpace=wrap;html=1;" parent="1" vertex="1">
          <mxGeometry x="1274.5" y="290" width="50" height="30" as="geometry" />
        </mxCell>
        <mxCell id="ttTmyin4ZHnzs8-TzVL9-61" value="Danger" style="rounded=0;whiteSpace=wrap;html=1;" parent="1" vertex="1">
          <mxGeometry x="1160" y="335" width="50" height="30" as="geometry" />
        </mxCell>
        <mxCell id="ttTmyin4ZHnzs8-TzVL9-62" value="Road Cut" style="rounded=0;whiteSpace=wrap;html=1;" parent="1" vertex="1">
          <mxGeometry x="1251" y="335" width="50" height="30" as="geometry" />
        </mxCell>
        <mxCell id="ttTmyin4ZHnzs8-TzVL9-63" value="Weather" style="rounded=0;whiteSpace=wrap;html=1;" parent="1" vertex="1">
          <mxGeometry x="1290" y="240" width="50" height="30" as="geometry" />
        </mxCell>
        <mxCell id="ttTmyin4ZHnzs8-TzVL9-70" value="" style="verticalLabelPosition=bottom;verticalAlign=top;html=1;shape=mxgraph.basic.pie;startAngle=0.060559470795421705;endAngle=0.40457128706933426;fontFamily=Helvetica;fontSize=11;fontColor=default;labelBackgroundColor=default;rotation=80;fillColor=light-dark(#000000,#000000);" parent="1" vertex="1">
          <mxGeometry x="1209.9959427024162" y="201.0015224900889" width="41" height="40" as="geometry" />
        </mxCell>
        <mxCell id="ttTmyin4ZHnzs8-TzVL9-71" value="Event Notification" style="rounded=0;whiteSpace=wrap;html=1;" parent="1" vertex="1">
          <mxGeometry x="1020" y="250" width="70" height="30" as="geometry" />
        </mxCell>
        <mxCell id="ttTmyin4ZHnzs8-TzVL9-72" value="Speed Alerts" style="rounded=0;whiteSpace=wrap;html=1;" parent="1" vertex="1">
          <mxGeometry x="1110" y="250" width="50" height="30" as="geometry" />
        </mxCell>
        <mxCell id="ttTmyin4ZHnzs8-TzVL9-73" style="edgeStyle=none;shape=connector;rounded=0;orthogonalLoop=1;jettySize=auto;html=1;exitX=0.5;exitY=1;exitDx=0;exitDy=0;entryX=0.5;entryY=0;entryDx=0;entryDy=0;strokeColor=default;align=center;verticalAlign=middle;fontFamily=Helvetica;fontSize=11;fontColor=default;labelBackgroundColor=default;startFill=0;endArrow=oval;endFill=1;endFillColor=light-dark(#FFFFFF,#FFFFFF);" parent="1" source="ttTmyin4ZHnzs8-TzVL9-12" target="ttTmyin4ZHnzs8-TzVL9-71" edge="1">
          <mxGeometry relative="1" as="geometry" />
        </mxCell>
        <mxCell id="ttTmyin4ZHnzs8-TzVL9-74" style="edgeStyle=none;shape=connector;rounded=0;orthogonalLoop=1;jettySize=auto;html=1;exitX=0.5;exitY=1;exitDx=0;exitDy=0;entryX=0.5;entryY=0;entryDx=0;entryDy=0;strokeColor=default;align=center;verticalAlign=middle;fontFamily=Helvetica;fontSize=11;fontColor=default;labelBackgroundColor=default;startFill=0;endArrow=oval;endFill=1;endFillColor=light-dark(#000000,#000000);" parent="1" source="ttTmyin4ZHnzs8-TzVL9-12" target="ttTmyin4ZHnzs8-TzVL9-72" edge="1">
          <mxGeometry relative="1" as="geometry" />
        </mxCell>
        <mxCell id="ttTmyin4ZHnzs8-TzVL9-75" value="Over Speed Alerts" style="rounded=0;whiteSpace=wrap;html=1;" parent="1" vertex="1">
          <mxGeometry x="1050" y="320" width="70" height="30" as="geometry" />
        </mxCell>
        <mxCell id="ttTmyin4ZHnzs8-TzVL9-77" value="Map" style="rounded=0;whiteSpace=wrap;html=1;" parent="1" vertex="1">
          <mxGeometry x="961" y="250" width="39" height="30" as="geometry" />
        </mxCell>
        <mxCell id="ttTmyin4ZHnzs8-TzVL9-78" value="Voice Guided Navigation" style="rounded=0;whiteSpace=wrap;html=1;" parent="1" vertex="1">
          <mxGeometry x="860" y="250" width="85" height="30" as="geometry" />
        </mxCell>
        <mxCell id="ttTmyin4ZHnzs8-TzVL9-80" style="edgeStyle=none;shape=connector;rounded=0;orthogonalLoop=1;jettySize=auto;html=1;exitX=0.5;exitY=1;exitDx=0;exitDy=0;entryX=0.5;entryY=0;entryDx=0;entryDy=0;strokeColor=default;align=center;verticalAlign=middle;fontFamily=Helvetica;fontSize=11;fontColor=default;labelBackgroundColor=default;startFill=0;endArrow=oval;endFill=1;endFillColor=light-dark(#FFFFFF,#FFFFFF);" parent="1" source="ttTmyin4ZHnzs8-TzVL9-10" target="ttTmyin4ZHnzs8-TzVL9-78" edge="1">
          <mxGeometry relative="1" as="geometry" />
        </mxCell>
        <mxCell id="ttTmyin4ZHnzs8-TzVL9-79" style="edgeStyle=none;shape=connector;rounded=0;orthogonalLoop=1;jettySize=auto;html=1;exitX=0.5;exitY=1;exitDx=0;exitDy=0;entryX=0.5;entryY=0;entryDx=0;entryDy=0;strokeColor=default;align=center;verticalAlign=middle;fontFamily=Helvetica;fontSize=11;fontColor=default;labelBackgroundColor=default;startFill=0;endArrow=oval;endFill=1;endFillColor=light-dark(#000000,#000000);" parent="1" source="ttTmyin4ZHnzs8-TzVL9-10" target="ttTmyin4ZHnzs8-TzVL9-77" edge="1">
          <mxGeometry relative="1" as="geometry" />
        </mxCell>
        <mxCell id="ttTmyin4ZHnzs8-TzVL9-81" value="Define Route" style="rounded=0;whiteSpace=wrap;html=1;" parent="1" vertex="1">
          <mxGeometry x="610" y="260" width="50" height="30" as="geometry" />
        </mxCell>
        <mxCell id="ttTmyin4ZHnzs8-TzVL9-82" value="Alternative Route Suggestions" style="rounded=0;whiteSpace=wrap;html=1;" parent="1" vertex="1">
          <mxGeometry x="680" y="250" width="75" height="50" as="geometry" />
        </mxCell>
        <mxCell id="ttTmyin4ZHnzs8-TzVL9-89" style="edgeStyle=none;shape=connector;rounded=0;orthogonalLoop=1;jettySize=auto;html=1;exitX=0.5;exitY=1;exitDx=0;exitDy=0;entryX=0.5;entryY=0;entryDx=0;entryDy=0;strokeColor=default;align=center;verticalAlign=middle;fontFamily=Helvetica;fontSize=11;fontColor=default;labelBackgroundColor=default;startFill=0;endArrow=none;endFill=0;" parent="1" source="ttTmyin4ZHnzs8-TzVL9-83" target="ttTmyin4ZHnzs8-TzVL9-87" edge="1">
          <mxGeometry relative="1" as="geometry" />
        </mxCell>
        <mxCell id="ttTmyin4ZHnzs8-TzVL9-90" style="edgeStyle=none;shape=connector;rounded=0;orthogonalLoop=1;jettySize=auto;html=1;exitX=0.5;exitY=1;exitDx=0;exitDy=0;entryX=0.5;entryY=0;entryDx=0;entryDy=0;strokeColor=default;align=center;verticalAlign=middle;fontFamily=Helvetica;fontSize=11;fontColor=default;labelBackgroundColor=default;startFill=0;endArrow=none;endFill=0;" parent="1" source="ttTmyin4ZHnzs8-TzVL9-83" target="ttTmyin4ZHnzs8-TzVL9-88" edge="1">
          <mxGeometry relative="1" as="geometry" />
        </mxCell>
        <mxCell id="ttTmyin4ZHnzs8-TzVL9-83" value="ETA Calculation" style="rounded=0;whiteSpace=wrap;html=1;" parent="1" vertex="1">
          <mxGeometry x="520" y="260" width="70" height="30" as="geometry" />
        </mxCell>
        <mxCell id="ttTmyin4ZHnzs8-TzVL9-84" style="edgeStyle=none;shape=connector;rounded=0;orthogonalLoop=1;jettySize=auto;html=1;exitX=0.5;exitY=1;exitDx=0;exitDy=0;entryX=0.5;entryY=0;entryDx=0;entryDy=0;strokeColor=default;align=center;verticalAlign=middle;fontFamily=Helvetica;fontSize=11;fontColor=default;labelBackgroundColor=default;startFill=0;endArrow=oval;endFill=1;endFillColor=light-dark(#000000,#000000);" parent="1" source="ttTmyin4ZHnzs8-TzVL9-7" target="ttTmyin4ZHnzs8-TzVL9-82" edge="1">
          <mxGeometry relative="1" as="geometry" />
        </mxCell>
        <mxCell id="ttTmyin4ZHnzs8-TzVL9-85" style="edgeStyle=none;shape=connector;rounded=0;orthogonalLoop=1;jettySize=auto;html=1;exitX=0.5;exitY=1;exitDx=0;exitDy=0;entryX=0.5;entryY=0;entryDx=0;entryDy=0;strokeColor=default;align=center;verticalAlign=middle;fontFamily=Helvetica;fontSize=11;fontColor=default;labelBackgroundColor=default;startFill=0;endArrow=oval;endFill=1;endFillColor=light-dark(#000000,#000000);" parent="1" source="ttTmyin4ZHnzs8-TzVL9-7" target="ttTmyin4ZHnzs8-TzVL9-81" edge="1">
          <mxGeometry relative="1" as="geometry" />
        </mxCell>
        <mxCell id="ttTmyin4ZHnzs8-TzVL9-87" value="Driving" style="rounded=0;whiteSpace=wrap;html=1;" parent="1" vertex="1">
          <mxGeometry x="490" y="320" width="50" height="30" as="geometry" />
        </mxCell>
        <mxCell id="ttTmyin4ZHnzs8-TzVL9-88" value="Walking" style="rounded=0;whiteSpace=wrap;html=1;" parent="1" vertex="1">
          <mxGeometry x="560" y="320" width="50" height="30" as="geometry" />
        </mxCell>
        <mxCell id="ttTmyin4ZHnzs8-TzVL9-91" value="" style="verticalLabelPosition=bottom;verticalAlign=top;html=1;shape=mxgraph.basic.pie;startAngle=0.1497636859920774;endAngle=0.4321001256099541;fontFamily=Helvetica;fontSize=11;fontColor=default;labelBackgroundColor=default;rotation=80;fillColor=light-dark(#FFFFFF,transparent);" parent="1" vertex="1">
          <mxGeometry x="534.4959427024162" y="270.00152249008886" width="41" height="40" as="geometry" />
        </mxCell>
        <mxCell id="ttTmyin4ZHnzs8-TzVL9-92" value="Multi-Stop Route" style="rounded=0;whiteSpace=wrap;html=1;" parent="1" vertex="1">
          <mxGeometry x="640" y="320" width="60" height="30" as="geometry" />
        </mxCell>
        <mxCell id="ttTmyin4ZHnzs8-TzVL9-93" style="edgeStyle=none;shape=connector;rounded=0;orthogonalLoop=1;jettySize=auto;html=1;exitX=0.5;exitY=1;exitDx=0;exitDy=0;entryX=0.5;entryY=0;entryDx=0;entryDy=0;strokeColor=default;align=center;verticalAlign=middle;fontFamily=Helvetica;fontSize=11;fontColor=default;labelBackgroundColor=default;startFill=0;endArrow=oval;endFill=1;endFillColor=light-dark(#FFFFFF,#FFFFFF);" parent="1" source="ttTmyin4ZHnzs8-TzVL9-81" target="ttTmyin4ZHnzs8-TzVL9-92" edge="1">
          <mxGeometry relative="1" as="geometry" />
        </mxCell>
        <mxCell id="ttTmyin4ZHnzs8-TzVL9-94" value="Register Vehicle" style="rounded=0;whiteSpace=wrap;html=1;" parent="1" vertex="1">
          <mxGeometry x="400" y="250" width="100" height="40" as="geometry" />
        </mxCell>
        <mxCell id="ttTmyin4ZHnzs8-TzVL9-95" style="edgeStyle=none;shape=connector;rounded=0;orthogonalLoop=1;jettySize=auto;html=1;exitX=0.5;exitY=1;exitDx=0;exitDy=0;entryX=0.5;entryY=0;entryDx=0;entryDy=0;strokeColor=default;align=center;verticalAlign=middle;fontFamily=Helvetica;fontSize=11;fontColor=default;labelBackgroundColor=default;startFill=0;endArrow=oval;endFill=1;endFillColor=light-dark(#000000,#000000);" parent="1" source="ttTmyin4ZHnzs8-TzVL9-5" target="ttTmyin4ZHnzs8-TzVL9-94" edge="1">
          <mxGeometry relative="1" as="geometry" />
        </mxCell>
        <mxCell id="ttTmyin4ZHnzs8-TzVL9-103" style="edgeStyle=none;shape=connector;rounded=0;orthogonalLoop=1;jettySize=auto;html=1;exitX=0.5;exitY=1;exitDx=0;exitDy=0;entryX=0.5;entryY=0;entryDx=0;entryDy=0;strokeColor=default;align=center;verticalAlign=middle;fontFamily=Helvetica;fontSize=11;fontColor=default;labelBackgroundColor=default;startFill=0;endArrow=none;endFill=0;" parent="1" source="ttTmyin4ZHnzs8-TzVL9-96" target="ttTmyin4ZHnzs8-TzVL9-99" edge="1">
          <mxGeometry relative="1" as="geometry" />
        </mxCell>
        <mxCell id="ttTmyin4ZHnzs8-TzVL9-96" value="Login" style="rounded=0;whiteSpace=wrap;html=1;" parent="1" vertex="1">
          <mxGeometry x="170" y="250" width="50" height="30" as="geometry" />
        </mxCell>
        <mxCell id="ttTmyin4ZHnzs8-TzVL9-97" value="Register" style="rounded=0;whiteSpace=wrap;html=1;" parent="1" vertex="1">
          <mxGeometry x="270" y="250" width="50" height="30" as="geometry" />
        </mxCell>
        <mxCell id="ttTmyin4ZHnzs8-TzVL9-98" value="Username" style="rounded=0;whiteSpace=wrap;html=1;" parent="1" vertex="1">
          <mxGeometry x="110" y="310" width="70" height="30" as="geometry" />
        </mxCell>
        <mxCell id="ttTmyin4ZHnzs8-TzVL9-99" value="Email" style="rounded=0;whiteSpace=wrap;html=1;" parent="1" vertex="1">
          <mxGeometry x="210" y="310" width="50" height="30" as="geometry" />
        </mxCell>
        <mxCell id="ttTmyin4ZHnzs8-TzVL9-100" style="edgeStyle=none;shape=connector;rounded=0;orthogonalLoop=1;jettySize=auto;html=1;exitX=0.5;exitY=1;exitDx=0;exitDy=0;entryX=0.5;entryY=0;entryDx=0;entryDy=0;strokeColor=default;align=center;verticalAlign=middle;fontFamily=Helvetica;fontSize=11;fontColor=default;labelBackgroundColor=default;startFill=0;endArrow=oval;endFill=1;endFillColor=light-dark(#000000,#000000);" parent="1" source="ttTmyin4ZHnzs8-TzVL9-3" target="ttTmyin4ZHnzs8-TzVL9-96" edge="1">
          <mxGeometry relative="1" as="geometry" />
        </mxCell>
        <mxCell id="ttTmyin4ZHnzs8-TzVL9-101" style="edgeStyle=none;shape=connector;rounded=0;orthogonalLoop=1;jettySize=auto;html=1;exitX=0.5;exitY=1;exitDx=0;exitDy=0;entryX=0.5;entryY=0;entryDx=0;entryDy=0;strokeColor=default;align=center;verticalAlign=middle;fontFamily=Helvetica;fontSize=11;fontColor=default;labelBackgroundColor=default;startFill=0;endArrow=oval;endFill=1;endFillColor=light-dark(#000000,#000000);" parent="1" source="ttTmyin4ZHnzs8-TzVL9-3" target="ttTmyin4ZHnzs8-TzVL9-97" edge="1">
          <mxGeometry relative="1" as="geometry" />
        </mxCell>
        <mxCell id="ttTmyin4ZHnzs8-TzVL9-102" style="edgeStyle=none;shape=connector;rounded=0;orthogonalLoop=1;jettySize=auto;html=1;exitX=0.5;exitY=1;exitDx=0;exitDy=0;entryX=0.5;entryY=0;entryDx=0;entryDy=0;strokeColor=default;align=center;verticalAlign=middle;fontFamily=Helvetica;fontSize=11;fontColor=default;labelBackgroundColor=default;startFill=0;endArrow=none;endFill=1;" parent="1" source="ttTmyin4ZHnzs8-TzVL9-96" target="ttTmyin4ZHnzs8-TzVL9-98" edge="1">
          <mxGeometry relative="1" as="geometry" />
        </mxCell>
        <mxCell id="ttTmyin4ZHnzs8-TzVL9-104" value="" style="verticalLabelPosition=bottom;verticalAlign=top;html=1;shape=mxgraph.basic.pie;startAngle=0.1278417505240773;endAngle=0.44031821300815716;fontFamily=Helvetica;fontSize=11;fontColor=default;labelBackgroundColor=default;rotation=80;fillColor=light-dark(#000000,#000000);" parent="1" vertex="1">
          <mxGeometry x="174.5" y="260" width="41" height="40" as="geometry" />
        </mxCell>
        <mxCell id="ttTmyin4ZHnzs8-TzVL9-42" style="edgeStyle=none;shape=connector;rounded=0;orthogonalLoop=1;jettySize=auto;html=1;exitX=0.5;exitY=1;exitDx=0;exitDy=0;entryX=0.5;entryY=0;entryDx=0;entryDy=0;strokeColor=default;align=center;verticalAlign=middle;fontFamily=Helvetica;fontSize=11;fontColor=default;labelBackgroundColor=default;startFill=0;endArrow=oval;endFill=1;endFillColor=light-dark(#FFFFFF,#FFFFFF);" parent="1" source="ttTmyin4ZHnzs8-TzVL9-15" target="ttTmyin4ZHnzs8-TzVL9-39" edge="1">
          <mxGeometry relative="1" as="geometry" />
        </mxCell>
        <mxCell id="ttTmyin4ZHnzs8-TzVL9-76" style="edgeStyle=none;shape=connector;rounded=0;orthogonalLoop=1;jettySize=auto;html=1;exitX=0.5;exitY=1;exitDx=0;exitDy=0;entryX=0.5;entryY=0;entryDx=0;entryDy=0;strokeColor=default;align=center;verticalAlign=middle;fontFamily=Helvetica;fontSize=11;fontColor=default;labelBackgroundColor=default;startFill=0;endArrow=oval;endFill=1;endFillColor=light-dark(#FFFFFF,#FFFFFF);" parent="1" source="ttTmyin4ZHnzs8-TzVL9-72" target="ttTmyin4ZHnzs8-TzVL9-75" edge="1">
          <mxGeometry relative="1" as="geometry" />
        </mxCell>
        <mxCell id="ttTmyin4ZHnzs8-TzVL9-86" style="edgeStyle=none;shape=connector;rounded=0;orthogonalLoop=1;jettySize=auto;html=1;exitX=0.5;exitY=1;exitDx=0;exitDy=0;entryX=0.5;entryY=0;entryDx=0;entryDy=0;strokeColor=default;align=center;verticalAlign=middle;fontFamily=Helvetica;fontSize=11;fontColor=default;labelBackgroundColor=default;startFill=0;endArrow=oval;endFill=1;endFillColor=light-dark(#000000,#000000);" parent="1" source="ttTmyin4ZHnzs8-TzVL9-7" target="ttTmyin4ZHnzs8-TzVL9-83" edge="1">
          <mxGeometry relative="1" as="geometry" />
        </mxCell>
        <mxCell id="uzpOIc5umadA595eGGY--1" value="Search" style="rounded=0;whiteSpace=wrap;html=1;" vertex="1" parent="1">
          <mxGeometry x="714.5" y="330" width="50" height="30" as="geometry" />
        </mxCell>
        <mxCell id="uzpOIc5umadA595eGGY--14" style="edgeStyle=none;shape=connector;rounded=0;orthogonalLoop=1;jettySize=auto;html=1;exitX=0.5;exitY=1;exitDx=0;exitDy=0;entryX=0.5;entryY=0;entryDx=0;entryDy=0;strokeColor=default;align=center;verticalAlign=middle;fontFamily=Helvetica;fontSize=11;fontColor=default;labelBackgroundColor=default;endArrow=none;endFill=1;startFill=0;" edge="1" parent="1" source="uzpOIc5umadA595eGGY--2" target="uzpOIc5umadA595eGGY--9">
          <mxGeometry relative="1" as="geometry" />
        </mxCell>
        <mxCell id="uzpOIc5umadA595eGGY--15" style="edgeStyle=none;shape=connector;rounded=0;orthogonalLoop=1;jettySize=auto;html=1;exitX=0.5;exitY=1;exitDx=0;exitDy=0;entryX=0.5;entryY=0;entryDx=0;entryDy=0;strokeColor=default;align=center;verticalAlign=middle;fontFamily=Helvetica;fontSize=11;fontColor=default;labelBackgroundColor=default;endArrow=none;endFill=1;startFill=0;" edge="1" parent="1" source="uzpOIc5umadA595eGGY--2" target="uzpOIc5umadA595eGGY--10">
          <mxGeometry relative="1" as="geometry" />
        </mxCell>
        <mxCell id="uzpOIc5umadA595eGGY--16" style="edgeStyle=none;shape=connector;rounded=0;orthogonalLoop=1;jettySize=auto;html=1;exitX=0.5;exitY=1;exitDx=0;exitDy=0;entryX=0.5;entryY=0;entryDx=0;entryDy=0;strokeColor=default;align=center;verticalAlign=middle;fontFamily=Helvetica;fontSize=11;fontColor=default;labelBackgroundColor=default;endArrow=none;endFill=1;startFill=0;" edge="1" parent="1" source="uzpOIc5umadA595eGGY--2" target="uzpOIc5umadA595eGGY--11">
          <mxGeometry relative="1" as="geometry" />
        </mxCell>
        <mxCell id="uzpOIc5umadA595eGGY--2" value="Payment" style="rounded=0;whiteSpace=wrap;html=1;" vertex="1" parent="1">
          <mxGeometry x="794.5" y="330" width="50" height="30" as="geometry" />
        </mxCell>
        <mxCell id="uzpOIc5umadA595eGGY--4" style="rounded=0;orthogonalLoop=1;jettySize=auto;html=1;exitX=0.5;exitY=1;exitDx=0;exitDy=0;endArrow=oval;endFill=1;endFillColor=light-dark(#000000,#000000);" edge="1" parent="1" source="ttTmyin4ZHnzs8-TzVL9-8" target="uzpOIc5umadA595eGGY--1">
          <mxGeometry relative="1" as="geometry" />
        </mxCell>
        <mxCell id="uzpOIc5umadA595eGGY--5" style="edgeStyle=none;shape=connector;rounded=0;orthogonalLoop=1;jettySize=auto;html=1;exitX=0.5;exitY=1;exitDx=0;exitDy=0;entryX=0.5;entryY=0;entryDx=0;entryDy=0;strokeColor=default;align=center;verticalAlign=middle;fontFamily=Helvetica;fontSize=11;fontColor=default;labelBackgroundColor=default;endArrow=oval;endFill=1;endFillColor=light-dark(#FFFFFF,#FFFFFF);" edge="1" parent="1" source="ttTmyin4ZHnzs8-TzVL9-8" target="uzpOIc5umadA595eGGY--2">
          <mxGeometry relative="1" as="geometry" />
        </mxCell>
        <mxCell id="uzpOIc5umadA595eGGY--6" value="New trip" style="rounded=0;whiteSpace=wrap;html=1;" vertex="1" parent="1">
          <mxGeometry x="861.5" y="320" width="50" height="30" as="geometry" />
        </mxCell>
        <mxCell id="uzpOIc5umadA595eGGY--8" style="edgeStyle=none;shape=connector;rounded=0;orthogonalLoop=1;jettySize=auto;html=1;exitX=0.5;exitY=1;exitDx=0;exitDy=0;entryX=0.5;entryY=0;entryDx=0;entryDy=0;strokeColor=default;align=center;verticalAlign=middle;fontFamily=Helvetica;fontSize=11;fontColor=default;labelBackgroundColor=default;endArrow=oval;endFill=1;endFillColor=light-dark(#FFFFFF,#FFFFFF);" edge="1" parent="1" source="ttTmyin4ZHnzs8-TzVL9-8" target="uzpOIc5umadA595eGGY--6">
          <mxGeometry relative="1" as="geometry" />
        </mxCell>
        <mxCell id="uzpOIc5umadA595eGGY--9" value="Credit card" style="rounded=0;whiteSpace=wrap;html=1;" vertex="1" parent="1">
          <mxGeometry x="750" y="420" width="39" height="30" as="geometry" />
        </mxCell>
        <mxCell id="uzpOIc5umadA595eGGY--10" value="Bank Transfer" style="rounded=0;whiteSpace=wrap;html=1;" vertex="1" parent="1">
          <mxGeometry x="800" y="420" width="50" height="30" as="geometry" />
        </mxCell>
        <mxCell id="uzpOIc5umadA595eGGY--11" value="Paypal" style="rounded=0;whiteSpace=wrap;html=1;" vertex="1" parent="1">
          <mxGeometry x="860" y="420" width="39" height="30" as="geometry" />
        </mxCell>
        <mxCell id="uzpOIc5umadA595eGGY--17" value="" style="verticalLabelPosition=bottom;verticalAlign=top;html=1;shape=mxgraph.basic.pie;startAngle=0.13823233802979495;endAngle=0.3835946057192143;fontFamily=Helvetica;fontSize=11;fontColor=default;labelBackgroundColor=default;rotation=80;fillColor=light-dark(#000000,#000000);" vertex="1" parent="1">
          <mxGeometry x="799.4959427024162" y="340.00152249008886" width="41" height="40" as="geometry" />
        </mxCell>
        <mxCell id="uzpOIc5umadA595eGGY--18" value="Departure" style="rounded=0;whiteSpace=wrap;html=1;" vertex="1" parent="1">
          <mxGeometry x="610" y="390" width="60" height="30" as="geometry" />
        </mxCell>
        <mxCell id="uzpOIc5umadA595eGGY--19" value="Destination" style="rounded=0;whiteSpace=wrap;html=1;" vertex="1" parent="1">
          <mxGeometry x="684.5" y="390" width="60" height="30" as="geometry" />
        </mxCell>
        <mxCell id="uzpOIc5umadA595eGGY--20" value="Date" style="rounded=0;whiteSpace=wrap;html=1;" vertex="1" parent="1">
          <mxGeometry x="534.5" y="390" width="60" height="30" as="geometry" />
        </mxCell>
        <mxCell id="uzpOIc5umadA595eGGY--21" style="edgeStyle=none;shape=connector;rounded=0;orthogonalLoop=1;jettySize=auto;html=1;exitX=0.5;exitY=1;exitDx=0;exitDy=0;entryX=0.5;entryY=0;entryDx=0;entryDy=0;strokeColor=default;align=center;verticalAlign=middle;fontFamily=Helvetica;fontSize=11;fontColor=default;labelBackgroundColor=default;endArrow=oval;endFill=1;endFillColor=light-dark(#000000,#000000);" edge="1" parent="1" source="uzpOIc5umadA595eGGY--1" target="uzpOIc5umadA595eGGY--20">
          <mxGeometry relative="1" as="geometry" />
        </mxCell>
        <mxCell id="uzpOIc5umadA595eGGY--22" style="edgeStyle=none;shape=connector;rounded=0;orthogonalLoop=1;jettySize=auto;html=1;exitX=0.5;exitY=1;exitDx=0;exitDy=0;entryX=0.5;entryY=0;entryDx=0;entryDy=0;strokeColor=default;align=center;verticalAlign=middle;fontFamily=Helvetica;fontSize=11;fontColor=default;labelBackgroundColor=default;endArrow=oval;endFill=1;endFillColor=light-dark(#000000,#000000);" edge="1" parent="1" source="uzpOIc5umadA595eGGY--1" target="uzpOIc5umadA595eGGY--18">
          <mxGeometry relative="1" as="geometry" />
        </mxCell>
        <mxCell id="uzpOIc5umadA595eGGY--23" style="edgeStyle=none;shape=connector;rounded=0;orthogonalLoop=1;jettySize=auto;html=1;exitX=0.5;exitY=1;exitDx=0;exitDy=0;entryX=0.5;entryY=0;entryDx=0;entryDy=0;strokeColor=default;align=center;verticalAlign=middle;fontFamily=Helvetica;fontSize=11;fontColor=default;labelBackgroundColor=default;endArrow=oval;endFill=1;endFillColor=light-dark(#000000,#000000);" edge="1" parent="1" source="uzpOIc5umadA595eGGY--1" target="uzpOIc5umadA595eGGY--19">
          <mxGeometry relative="1" as="geometry" />
        </mxCell>
        <mxCell id="uzpOIc5umadA595eGGY--26" value="Departure" style="rounded=0;whiteSpace=wrap;html=1;" vertex="1" parent="1">
          <mxGeometry x="950" y="380" width="60" height="30" as="geometry" />
        </mxCell>
        <mxCell id="uzpOIc5umadA595eGGY--27" value="Destination" style="rounded=0;whiteSpace=wrap;html=1;" vertex="1" parent="1">
          <mxGeometry x="1024.5" y="380" width="60" height="30" as="geometry" />
        </mxCell>
        <mxCell id="uzpOIc5umadA595eGGY--28" value="Date" style="rounded=0;whiteSpace=wrap;html=1;" vertex="1" parent="1">
          <mxGeometry x="874.5" y="380" width="60" height="30" as="geometry" />
        </mxCell>
        <mxCell id="uzpOIc5umadA595eGGY--32" value="Cost Trip" style="rounded=0;whiteSpace=wrap;html=1;" vertex="1" parent="1">
          <mxGeometry x="1099.5" y="380" width="60" height="30" as="geometry" />
        </mxCell>
        <mxCell id="uzpOIc5umadA595eGGY--33" style="edgeStyle=none;shape=connector;rounded=0;orthogonalLoop=1;jettySize=auto;html=1;exitX=0.5;exitY=1;exitDx=0;exitDy=0;entryX=0.5;entryY=0;entryDx=0;entryDy=0;strokeColor=default;align=center;verticalAlign=middle;fontFamily=Helvetica;fontSize=11;fontColor=default;labelBackgroundColor=default;endArrow=oval;endFill=1;endFillColor=light-dark(#000000,#000000);" edge="1" parent="1" source="uzpOIc5umadA595eGGY--6" target="uzpOIc5umadA595eGGY--28">
          <mxGeometry relative="1" as="geometry" />
        </mxCell>
        <mxCell id="uzpOIc5umadA595eGGY--34" style="edgeStyle=none;shape=connector;rounded=0;orthogonalLoop=1;jettySize=auto;html=1;exitX=0.5;exitY=1;exitDx=0;exitDy=0;entryX=0.5;entryY=0;entryDx=0;entryDy=0;strokeColor=default;align=center;verticalAlign=middle;fontFamily=Helvetica;fontSize=11;fontColor=default;labelBackgroundColor=default;endArrow=oval;endFill=1;endFillColor=light-dark(#000000,#000000);" edge="1" parent="1" source="uzpOIc5umadA595eGGY--6" target="uzpOIc5umadA595eGGY--26">
          <mxGeometry relative="1" as="geometry" />
        </mxCell>
        <mxCell id="uzpOIc5umadA595eGGY--35" style="edgeStyle=none;shape=connector;rounded=0;orthogonalLoop=1;jettySize=auto;html=1;exitX=0.5;exitY=1;exitDx=0;exitDy=0;entryX=0.5;entryY=0;entryDx=0;entryDy=0;strokeColor=default;align=center;verticalAlign=middle;fontFamily=Helvetica;fontSize=11;fontColor=default;labelBackgroundColor=default;endArrow=oval;endFill=1;endFillColor=light-dark(#000000,#000000);" edge="1" parent="1" source="uzpOIc5umadA595eGGY--6" target="uzpOIc5umadA595eGGY--27">
          <mxGeometry relative="1" as="geometry" />
        </mxCell>
        <mxCell id="uzpOIc5umadA595eGGY--36" style="edgeStyle=none;shape=connector;rounded=0;orthogonalLoop=1;jettySize=auto;html=1;exitX=0.5;exitY=1;exitDx=0;exitDy=0;entryX=0.5;entryY=0;entryDx=0;entryDy=0;strokeColor=default;align=center;verticalAlign=middle;fontFamily=Helvetica;fontSize=11;fontColor=default;labelBackgroundColor=default;endArrow=oval;endFill=1;endFillColor=light-dark(#000000,#000000);" edge="1" parent="1" source="uzpOIc5umadA595eGGY--6" target="uzpOIc5umadA595eGGY--32">
          <mxGeometry relative="1" as="geometry" />
        </mxCell>
        <mxCell id="uzpOIc5umadA595eGGY--43" style="edgeStyle=none;shape=connector;rounded=0;orthogonalLoop=1;jettySize=auto;html=1;exitX=0.5;exitY=1;exitDx=0;exitDy=0;entryX=0.5;entryY=0;entryDx=0;entryDy=0;strokeColor=default;align=center;verticalAlign=middle;fontFamily=Helvetica;fontSize=11;fontColor=default;labelBackgroundColor=default;endArrow=none;endFill=1;startFill=0;" edge="1" parent="1" source="uzpOIc5umadA595eGGY--38" target="uzpOIc5umadA595eGGY--41">
          <mxGeometry relative="1" as="geometry" />
        </mxCell>
        <mxCell id="uzpOIc5umadA595eGGY--38" value="Security" style="rounded=0;whiteSpace=wrap;html=1;" vertex="1" parent="1">
          <mxGeometry x="1600" y="180" width="100" height="40" as="geometry" />
        </mxCell>
        <mxCell id="uzpOIc5umadA595eGGY--40" value="Standard" style="rounded=0;whiteSpace=wrap;html=1;" vertex="1" parent="1">
          <mxGeometry x="1654" y="270" width="60" height="40" as="geometry" />
        </mxCell>
        <mxCell id="uzpOIc5umadA595eGGY--41" value="High" style="rounded=0;whiteSpace=wrap;html=1;" vertex="1" parent="1">
          <mxGeometry x="1750" y="270" width="60" height="40" as="geometry" />
        </mxCell>
        <mxCell id="uzpOIc5umadA595eGGY--39" style="edgeStyle=none;shape=connector;rounded=0;orthogonalLoop=1;jettySize=auto;html=1;exitX=0.5;exitY=1;exitDx=0;exitDy=0;entryX=0.5;entryY=0;entryDx=0;entryDy=0;strokeColor=default;align=center;verticalAlign=middle;fontFamily=Helvetica;fontSize=11;fontColor=default;labelBackgroundColor=default;endArrow=oval;endFill=1;endFillColor=light-dark(#000000,#000000);" edge="1" parent="1" source="ttTmyin4ZHnzs8-TzVL9-1" target="uzpOIc5umadA595eGGY--38">
          <mxGeometry relative="1" as="geometry" />
        </mxCell>
        <mxCell id="uzpOIc5umadA595eGGY--42" style="edgeStyle=none;shape=connector;rounded=0;orthogonalLoop=1;jettySize=auto;html=1;exitX=0.5;exitY=1;exitDx=0;exitDy=0;entryX=0.5;entryY=0;entryDx=0;entryDy=0;strokeColor=default;align=center;verticalAlign=middle;fontFamily=Helvetica;fontSize=11;fontColor=default;labelBackgroundColor=default;endArrow=none;endFill=1;startFill=0;" edge="1" parent="1" source="uzpOIc5umadA595eGGY--38" target="uzpOIc5umadA595eGGY--40">
          <mxGeometry relative="1" as="geometry" />
        </mxCell>
        <mxCell id="uzpOIc5umadA595eGGY--44" value="" style="verticalLabelPosition=bottom;verticalAlign=top;html=1;shape=mxgraph.basic.pie;startAngle=0.06751263684982421;endAngle=0.17338325220056344;fontFamily=Helvetica;fontSize=11;fontColor=default;labelBackgroundColor=default;rotation=80;fillColor=none;" vertex="1" parent="1">
          <mxGeometry x="1625.9973595019173" y="201.0031573786438" width="50" height="40" as="geometry" />
        </mxCell>
      </root>
    </mxGraphModel>
  </diagram>
</mxfile>
